<svg xmlns="http://www.w3.org/2000/svg" viewBox="0 15.449999809265137 177.64999389648438 38.5" data-asc="1.069" width="177.64999389648438" height="38.5"><defs/><g fill="#e0c58e"><g transform="translate(0, 0)"><path d="M0 53.45L0 52.95L1.55 52.95Q2.50 52.95 3.20 52.67Q3.90 52.40 4.30 51.70Q4.70 51.00 4.70 49.70L4.70 21.55Q4.70 20.20 4.33 19.50Q3.95 18.80 3.23 18.52Q2.50 18.25 1.55 18.25L0 18.25L0 17.75L26.70 17.75L27 26.80L26.50 26.80L26.40 25.10Q26.20 22.55 25.40 21.05Q24.60 19.55 22.98 18.90Q21.35 18.25 18.70 18.25L11.55 18.25L11.55 34.95L23.65 34.95L23.65 35.45L11.55 35.45L11.55 49.55Q11.55 50.90 11.90 51.62Q12.25 52.35 12.98 52.65Q13.70 52.95 14.65 52.95L16.85 52.95L16.85 53.45L0 53.45ZM29.60 53.45L29.60 52.95L30.25 52.95Q31.30 52.95 32.15 52.65Q33 52.35 33.50 51.60Q34 50.85 34 49.45L34 19.30Q34 17.95 33.48 17.22Q32.95 16.50 32.10 16.22Q31.25 15.95 30.25 15.95L29.60 15.95L29.60 15.45L40.50 15.45L40.50 49.40Q40.50 50.80 41 51.57Q41.50 52.35 42.38 52.65Q43.25 52.95 44.25 52.95L44.90 52.95L44.90 53.45L29.60 53.45ZM60.55 53.95Q54.80 53.95 51.48 50.47Q48.15 47.00 48.15 39.95Q48.15 32.95 51.33 29.50Q54.50 26.05 60.70 26.05Q66.50 26.05 69.80 29.50Q73.10 32.95 73.10 39.95Q73.10 47.00 69.93 50.47Q66.75 53.95 60.55 53.95M60.65 53.45Q62.80 53.45 64.08 52.12Q65.35 50.80 65.90 47.85Q66.45 44.90 66.45 39.95Q66.45 35.05 65.90 32.12Q65.35 29.20 64.05 27.87Q62.75 26.55 60.60 26.55Q58.50 26.55 57.23 27.87Q55.95 29.20 55.38 32.12Q54.80 35.05 54.80 39.95Q54.80 44.90 55.38 47.85Q55.95 50.80 57.23 52.12Q58.50 53.45 60.65 53.45ZM76.65 53.45L76.65 52.95L77.20 52.95Q78.20 52.95 79.05 52.65Q79.90 52.35 80.43 51.60Q80.95 50.85 80.95 49.45L80.95 30.50Q80.95 29.15 80.43 28.42Q79.90 27.70 79.05 27.42Q78.20 27.15 77.20 27.15L77.00 27.15L77.00 26.65L87.40 26.65L87.40 31.20L87.50 31.20Q88.00 29.70 88.83 28.55Q89.65 27.40 91.05 26.75Q92.45 26.10 94.50 26.10Q97.20 26.10 98.60 27.17Q100.00 28.25 100.00 30.20Q100.00 32.10 98.55 33.22Q97.10 34.35 94.30 34.35Q94.30 30.80 93.45 29.47Q92.60 28.15 91.20 28.15Q90.20 28.15 89.48 28.77Q88.75 29.40 88.30 30.60Q87.85 31.80 87.65 33.40Q87.45 35 87.45 37L87.45 49.40Q87.45 50.80 87.95 51.57Q88.45 52.35 89.33 52.65Q90.20 52.95 91.20 52.95L92.40 52.95L92.40 53.45L76.65 53.45ZM101.60 53.45L101.60 52.95L102.15 52.95Q103.20 52.95 104.05 52.65Q104.90 52.35 105.40 51.60Q105.90 50.85 105.90 49.45L105.90 19.30Q105.90 17.95 105.38 17.22Q104.85 16.50 104.00 16.22Q103.15 15.95 102.15 15.95L101.70 15.95L101.70 15.45L112.40 15.45L112.40 36.70Q112.40 37.55 112.40 38.37Q112.40 39.20 112.40 40.05Q112.40 40.90 112.35 41.75L121.55 31.85Q122.20 31.15 122.63 30.57Q123.05 30.00 123.25 29.52Q123.45 29.05 123.45 28.75Q123.45 27.85 122.18 27.50Q120.90 27.15 118.10 27.15L118.10 26.65L129.80 26.65L129.80 27.15Q128.65 27.15 127.70 27.42Q126.75 27.70 125.60 28.60Q124.45 29.50 122.60 31.50L118.60 35.80L127.30 48.90Q128.50 50.75 129.23 51.60Q129.95 52.45 130.48 52.70Q131 52.95 131.50 52.95L131.60 52.95L131.60 53.45L130.35 53.45Q128.05 53.45 126.48 53.30Q124.90 53.15 123.75 52.72Q122.60 52.30 121.73 51.47Q120.85 50.65 119.95 49.25L114.35 40.40L112.40 42.50L112.40 49.40Q112.40 50.80 112.90 51.57Q113.40 52.35 114.28 52.65Q115.15 52.95 116.15 52.95L116.60 52.95L116.60 53.45L101.60 53.45ZM146.80 53.95Q140.65 53.95 137.38 50.32Q134.10 46.70 134.10 40.20Q134.10 33.20 137.23 29.62Q140.35 26.05 146.00 26.05Q151.25 26.05 154.23 29.07Q157.20 32.10 157.20 38.05L157.20 39.25L140.70 39.25Q140.75 44.35 141.43 47.45Q142.10 50.55 143.63 51.97Q145.15 53.40 147.55 53.40Q149.35 53.40 150.80 52.67Q152.25 51.95 153.23 50.40Q154.20 48.85 154.55 46.40Q155.40 46.55 155.78 47.15Q156.15 47.75 156.15 48.50Q156.15 49.75 155.10 51.00Q154.05 52.25 152.00 53.10Q149.95 53.95 146.80 53.95M150.60 38.75Q150.60 34.30 150.18 31.62Q149.75 28.95 148.73 27.75Q147.70 26.55 145.95 26.55Q144.20 26.55 143.05 27.75Q141.90 28.95 141.38 31.62Q140.85 34.30 140.70 38.75L150.60 38.75ZM171.55 53.95Q168.00 53.95 166.13 52.20Q164.25 50.45 164.25 46.10L164.25 27.15L160.45 27.15L160.45 26.65Q162.65 26.65 164.30 26.22Q165.95 25.80 167.15 24.85Q168.30 23.95 169.05 22.55Q169.80 21.15 170.25 19.25L170.75 19.25L170.75 26.65L177.35 26.65L177.35 27.15L170.75 27.15L170.75 48.20Q170.75 50.65 171.68 51.82Q172.60 53.00 174.45 53.00Q175.15 53.00 175.95 52.85Q176.75 52.70 177.65 52.35L177.65 52.85Q176.90 53.20 175.28 53.57Q173.65 53.95 171.55 53.95Z"/></g></g></svg>