<svg xmlns="http://www.w3.org/2000/svg" version="1.1" xmlns:xlink="http://www.w3.org/1999/xlink" xmlns:svgjs="http://svgjs.dev/svgjs" width="1920" height="1080" preserveAspectRatio="none" viewBox="0 0 1920 1080"><g mask="url(&quot;#SvgjsMask1294&quot;)" fill="none"><rect width="1920" height="1080" x="0" y="0" fill="url(&quot;#SvgjsLinearGradient1295&quot;)"></rect><path d="M0 0L36.33 0L0 418.49z" fill="rgba(255, 255, 255, .1)"></path><path d="M0 418.49L36.33 0L163.97 0L0 572.98z" fill="rgba(255, 255, 255, .075)"></path><path d="M0 572.98L163.97 0L827.25 0L0 658.5600000000001z" fill="rgba(255, 255, 255, .05)"></path><path d="M0 658.5600000000001L827.25 0L904.72 0L0 734.71z" fill="rgba(255, 255, 255, .025)"></path><path d="M1920 1080L1385.5900000000001 1080L1920 594.8399999999999z" fill="rgba(0, 0, 0, .1)"></path><path d="M1920 594.8399999999999L1385.5900000000001 1080L1242.3700000000001 1080L1920 318.2899999999999z" fill="rgba(0, 0, 0, .075)"></path><path d="M1920 318.28999999999996L1242.37 1080L1152.3 1080L1920 217.28999999999996z" fill="rgba(0, 0, 0, .05)"></path><path d="M1920 217.28999999999996L1152.3 1080L1094.96 1080L1920 87.46999999999997z" fill="rgba(0, 0, 0, .025)"></path></g><defs><mask id="SvgjsMask1294"><rect width="1920" height="1080" fill="#ffffff"></rect></mask><linearGradient x1="50%" y1="100%" x2="50%" y2="0%" gradientUnits="userSpaceOnUse" id="SvgjsLinearGradient1295"><stop stop-color="rgba(255, 255, 255, 1)" offset="0"></stop><stop stop-color="rgba(130, 92, 166, 1)" offset="0"></stop></linearGradient></defs></svg>