<svg xmlns="http://www.w3.org/2000/svg" version="1.1" xmlns:xlink="http://www.w3.org/1999/xlink" xmlns:svgjs="http://svgjs.dev/svgjs" width="1920" height="1080" preserveAspectRatio="none" viewBox="0 0 1920 1080"><g mask="url(&quot;#SvgjsMask1064&quot;)" fill="none"><rect width="1920" height="1080" x="0" y="0" fill="url(&quot;#SvgjsLinearGradient1065&quot;)"></rect><path d="M0 0L341.89 0L0 522.81z" fill="rgba(255, 255, 255, .1)"></path><path d="M0 522.81L341.89 0L1210.13 0L0 818.1199999999999z" fill="rgba(255, 255, 255, .075)"></path><path d="M0 818.1199999999999L1210.13 0L1504.27 0L0 864.9799999999999z" fill="rgba(255, 255, 255, .05)"></path><path d="M0 864.9799999999999L1504.27 0L1698.59 0L0 915.0299999999999z" fill="rgba(255, 255, 255, .025)"></path><path d="M1920 1080L1360.13 1080L1920 1066.6z" fill="rgba(0, 0, 0, .1)"></path><path d="M1920 1066.6L1360.13 1080L843.0500000000001 1080L1920 596.78z" fill="rgba(0, 0, 0, .075)"></path><path d="M1920 596.78L843.05 1080L459.84999999999997 1080L1920 536.91z" fill="rgba(0, 0, 0, .05)"></path><path d="M1920 536.9100000000001L459.8499999999999 1080L216.58999999999992 1080L1920 411.8500000000001z" fill="rgba(0, 0, 0, .025)"></path></g><defs><mask id="SvgjsMask1064"><rect width="1920" height="1080" fill="#ffffff"></rect></mask><linearGradient x1="50%" y1="100%" x2="50%" y2="0%" gradientUnits="userSpaceOnUse" id="SvgjsLinearGradient1065"><stop stop-color="rgba(0, 0, 0, 1)" offset="0"></stop><stop stop-color="rgba(130, 92, 166, 1)" offset="1"></stop></linearGradient></defs></svg>